<?xml version="1.0" encoding="UTF-8"?><svg id="a" xmlns="http://www.w3.org/2000/svg" width="160.87mm" height="53.16mm" viewBox="0 0 456.01 150.69"><path d="m141.88,28.57H14.29C6.4,28.57,0,22.17,0,14.28S6.4,0,14.29,0h127.59C149.77,0,156.17,6.4,156.17,14.29s-6.4,14.29-14.29,14.29" style="fill:#040000;"/><path d="m117.4,16c0-2.56-1.62-4.71-4.46-4.71-3.21,0-4.71,2.68-4.71,4.96,0,3.27,2.25,4.99,4.71,4.99,1.81,0,3.37-.75,4.24-2.28l-1.75-1.19c-.5,1.06-1.34,1.5-2.37,1.5-1.31,0-2.5-.87-2.56-2.21h6.77s.12-.41.12-1.06h.01Zm-6.89-.62c.19-1.22,1.09-2.06,2.43-2.06s2.18.84,2.31,2.06c0,0-4.74,0-4.74,0Z" style="fill:#fff;"/><path d="m102.93,11.29c-1.19,0-2.21.47-2.93,1.18h-.06v-.9h-2.28v13.97h2.28v-5.27h.06c.9.65,1.87.97,2.84.97,2.37,0,4.55-1.84,4.55-4.99s-1.78-4.96-4.46-4.96Zm-.5,7.92c-1.56,0-2.53-1.15-2.53-2.87,0-1.81.97-2.99,2.59-2.99,1.53,0,2.53,1.19,2.53,3.03,0,1.68-1.03,2.84-2.59,2.84h0Z" style="fill:#fff;"/><polygon points="85.55 11.57 90.26 20.65 88.02 25.54 90.45 25.54 96.91 11.57 94.44 11.57 91.45 18.12 88.08 11.57 85.55 11.57" style="fill:#fff;"/><polygon points="74.08 20.99 76.35 20.99 76.35 15.31 82.71 15.31 82.71 20.99 84.99 20.99 84.99 7.7 82.71 7.7 82.71 13.16 76.35 13.16 76.35 7.7 74.08 7.7 74.08 20.99" style="fill:#fff;"/><rect x="65.91" y="11.57" width="2.15" height="9.42" style="fill:#fff;"/><path d="m65.63,8.89c0-.75.66-1.37,1.34-1.37.81,0,1.37.62,1.37,1.37s-.56,1.34-1.37,1.34c-.69,0-1.34-.62-1.34-1.34" style="fill:#fff;"/><path d="m50.85,20.99v-9.42h2.15v1.15h.09c.53-.87,1.59-1.43,2.68-1.43,1.53,0,2.28.94,2.56,1.62h.09c.41-.69,1.4-1.62,3.15-1.62,2.12,0,3.12,1.65,3.12,3.77v5.93h-2.15v-5.52c0-1.12-.59-2.15-1.68-2.15-1.37,0-2.06,1.06-2.06,2.31v5.37h-2.12v-5.52c0-1.06-.5-2.15-1.65-2.15-1.28,0-2.03,1.03-2.03,2.31v5.37h-2.15v-.02Z" style="fill:#fff;"/><path d="m45.33,11.29c-2.25,0-4.46,1.56-4.46,5.08,0,2.93,1.9,4.87,4.46,4.87,2.81,0,4.46-2.09,4.46-4.87,0-3.28-1.87-5.08-4.46-5.08Zm0,8.14c-1.72,0-2.28-1.53-2.28-3.06,0-2.12.78-3.28,2.28-3.28,1.62,0,2.34,1.34,2.34,3.28,0,1.59-.72,3.06-2.34,3.06Z" style="fill:#fff;"/><path d="m35.94,11.29c-1.62,0-2.65.5-3.65,1.81l1.5,1.09c.47-.66,1.09-1.09,2-1.09.97,0,1.93.5,1.93,1.78v.28h-1.4c-2.56,0-4.52,1.09-4.52,3.37,0,1.72,1.37,2.71,3.15,2.71,1.12,0,2.25-.41,2.71-1.06h.06v.81h2.09v-6.11c0-2.28-1.68-3.59-3.87-3.59Zm1.78,5.96c0,1.5-1,2.18-2.28,2.18-.75,0-1.5-.28-1.5-1.06,0-1.22,1.59-1.47,2.81-1.47h.97v.34h0Z" style="fill:#fff;"/><rect x="28.23" y="11.57" width="2.15" height="9.42" style="fill:#fff;"/><path d="m27.95,8.89c0-.75.66-1.37,1.37-1.37.78,0,1.34.62,1.34,1.37s-.56,1.34-1.34,1.34c-.72,0-1.37-.62-1.37-1.34" style="fill:#fff;"/><polygon points="14.95 20.99 17.47 20.99 20.87 16.12 24.24 20.99 26.77 20.99 22.12 14.31 26.74 7.7 24.18 7.7 20.87 12.47 17.54 7.7 14.98 7.7 19.59 14.31 14.95 20.99" style="fill:#fff;"/><path d="m120.71,16.28v4.71h-2.25v-9.42h2.25v1.47h.06c.81-1.37,2-1.75,3.65-1.75h.37v2.21h-.37c-2.62,0-3.71.94-3.71,2.78" style="fill:#fff;"/><rect x="138.95" y="7.51" width="2.27" height="13.47" style="fill:#fff;"/><path d="m130.21,7.51l-5.02,13.47h2.48l1.01-2.86h5.37l1,2.86h2.5l-5.04-13.47h-2.3Zm-.78,8.47l1.94-5.51,1.93,5.51h-3.87Z" style="fill:#fff;"/><path d="m2.31,135.5v-3.88h6.12c1.52,0,2.69-.34,3.51-1.01s1.23-1.64,1.23-2.9-.41-2.23-1.23-2.92c-.82-.68-1.99-1.03-3.51-1.03h-4.23v19.84H0v-23.69h8.97c2.67,0,4.76.68,6.27,2.05,1.51,1.37,2.26,3.28,2.26,5.74s-.73,4.37-2.18,5.74-3.47,2.05-6.06,2.05H2.31Z" style="fill:#040000;"/><path d="m25.51,120.92c0,.75-.23,1.35-.69,1.79-.46.45-1.07.67-1.84.67s-1.37-.22-1.81-.67c-.44-.45-.66-1.05-.66-1.79s.22-1.38.67-1.84,1.05-.69,1.79-.69,1.38.23,1.84.69.69,1.07.69,1.84h.01Zm-.48,22.69h-4.04v-17.56h4.04v17.56Z" style="fill:#040000;"/><path d="m29.36,143.61v-17.56h4.07v2.34h.16c.51-.85,1.23-1.53,2.15-2.04.92-.5,1.9-.75,2.95-.75,1.84,0,3.27.58,4.29,1.75,1.03,1.16,1.54,2.82,1.54,4.95v11.31h-4.07v-10.51c0-1.11-.3-2-.9-2.68-.6-.67-1.37-1.01-2.31-1.01-.77,0-1.44.17-2.02.5-.58.33-1.02.8-1.33,1.41-.31.61-.46,1.31-.46,2.1v10.19h-4.07Z" style="fill:#040000;"/><path d="m48.33,143.61v-17.56h4.07v2.34h.16c.51-.85,1.23-1.53,2.15-2.04.92-.5,1.9-.75,2.95-.75,1.84,0,3.27.58,4.29,1.75,1.03,1.16,1.54,2.82,1.54,4.95v11.31h-4.07v-10.51c0-1.11-.3-2-.9-2.68-.6-.67-1.37-1.01-2.31-1.01-.77,0-1.44.17-2.02.5s-1.02.8-1.33,1.41-.46,1.31-.46,2.1v10.19h-4.07,0Z" style="fill:#040000;"/><path d="m72.18,144.06c-1.07,0-2.03-.2-2.88-.61s-1.53-.98-2.02-1.73-.74-1.63-.74-2.66c0-1.24.33-2.33.98-3.27s1.6-1.67,2.84-2.2c1.24-.52,2.7-.79,4.39-.79h2.5v-.67c0-.92-.32-1.66-.95-2.21-.63-.56-1.46-.83-2.48-.83-.75,0-1.42.16-2,.48-.59.32-1.1.79-1.52,1.41l-2.88-1.99c.79-1.13,1.74-1.98,2.85-2.55s2.39-.85,3.85-.85,2.66.27,3.75.8c1.09.53,1.93,1.3,2.53,2.29.6.99.9,2.16.9,3.51v11.41h-4.04v-2.21h-.19c-.43.83-1.08,1.49-1.96,1.96s-1.85.71-2.92.71h0Zm1.12-3.43c.64,0,1.26-.12,1.86-.37s1.09-.61,1.49-1.11c.4-.49.59-1.09.59-1.79v-1.12h-1.63c-1.65,0-2.88.22-3.7.66-.82.44-1.23,1.07-1.23,1.91,0,.56.24,1,.72,1.33s1.12.5,1.91.5h-.01Z" style="fill:#040000;"/><path d="m92.81,144.06c-1.71,0-3.2-.38-4.49-1.14-1.28-.76-2.27-1.83-2.96-3.22s-1.04-3.01-1.04-4.87.35-3.48,1.04-4.87c.69-1.39,1.68-2.46,2.96-3.2,1.28-.75,2.78-1.12,4.49-1.12,1.43,0,2.76.36,3.99,1.09,1.23.73,2.16,1.7,2.8,2.92l-3.21,2.24c-.45-.79-.99-1.39-1.63-1.81s-1.35-.63-2.12-.63c-.85,0-1.6.22-2.23.66-.63.44-1.12,1.07-1.46,1.89-.34.82-.51,1.77-.51,2.84s.17,2.04.51,2.85c.34.81.82,1.44,1.44,1.87.62.44,1.36.66,2.21.66.79,0,1.51-.21,2.15-.63s1.19-1.02,1.63-1.81l3.21,2.24c-.64,1.22-1.58,2.2-2.8,2.93-1.23.74-2.56,1.11-3.99,1.11h0Z" style="fill:#040000;"/><path d="m102.42,140.02v-20.1h4.07v18.81c0,.38.1.68.3.88.2.2.5.3.88.3h.83v3.81h-2.05c-1.33,0-2.33-.31-3.01-.95-.68-.63-1.03-1.55-1.03-2.77v.02Z" style="fill:#040000;"/><path d="m118.99,144.06c-1.73,0-3.24-.37-4.52-1.12s-2.27-1.81-2.96-3.17c-.69-1.37-1.04-2.98-1.04-4.84s.33-3.53.99-4.94,1.62-2.49,2.87-3.25,2.7-1.14,4.34-1.14,2.93.32,4.1.96c1.17.64,2.08,1.56,2.72,2.76s.96,2.59.96,4.17c0,.92-.11,1.82-.32,2.69h-13.2l.1-3.3h9.26c0-.79-.13-1.47-.4-2.03-.27-.57-.67-1.01-1.22-1.33s-1.21-.48-2-.48c-.88,0-1.62.23-2.23.69s-1.06,1.13-1.36,2.02-.45,1.98-.45,3.29c0,1.13.17,2.1.5,2.92.33.81.82,1.44,1.47,1.89s1.46.67,2.42.67c.79,0,1.51-.2,2.15-.61s1.19-1.01,1.63-1.83l3.08,2.12c-.6,1.15-1.49,2.09-2.66,2.8-1.18.72-2.59,1.07-4.23,1.07h0Z" style="fill:#040000;"/><path d="m138.76,150.27v-24.23h4.07v2.24h.16c.6-.83,1.34-1.49,2.21-1.97.88-.48,1.82-.72,2.82-.72,1.41,0,2.65.37,3.73,1.12s1.92,1.8,2.52,3.16.9,2.92.9,4.7c0,1.88-.3,3.54-.9,4.97-.6,1.43-1.44,2.54-2.53,3.33-1.09.79-2.34,1.19-3.75,1.19-1.05,0-2-.24-2.85-.71s-1.57-1.13-2.15-1.99h-.16v8.91h-4.07Zm3.94-15.45c0,1.07.17,2,.51,2.8s.82,1.43,1.43,1.87c.61.45,1.32.67,2.13.67s1.58-.22,2.23-.67,1.15-1.07,1.51-1.87c.35-.8.53-1.74.53-2.8s-.18-2.01-.53-2.82-.84-1.44-1.47-1.87c-.63-.44-1.35-.66-2.16-.66s-1.54.22-2.18.66-1.13,1.06-1.47,1.87-.51,1.75-.51,2.82h-.02Z" style="fill:#040000;"/><path d="m158.38,143.61v-23.69h4.07v8.46h.16c.51-.85,1.23-1.53,2.15-2.04.92-.5,1.9-.75,2.95-.75,1.84,0,3.27.58,4.29,1.75,1.03,1.16,1.54,2.82,1.54,4.95v11.31h-4.07v-10.51c0-1.11-.3-2-.9-2.68-.6-.67-1.37-1.01-2.31-1.01-.77,0-1.44.17-2.02.5s-1.02.8-1.33,1.41-.46,1.31-.46,2.1v10.19h-4.07Z" style="fill:#040000;"/><path d="m184.89,144.06c-1.69,0-3.16-.38-4.41-1.14s-2.21-1.83-2.88-3.22-1.01-3.01-1.01-4.87.34-3.51,1.01-4.9,1.63-2.46,2.88-3.21,2.72-1.12,4.41-1.12,3.12.37,4.37,1.12,2.22,1.82,2.9,3.21,1.03,3.02,1.03,4.9-.34,3.49-1.03,4.89c-.68,1.4-1.65,2.47-2.9,3.22s-2.71,1.12-4.37,1.12Zm0-3.85c.85,0,1.59-.22,2.21-.66s1.09-1.06,1.43-1.87c.33-.81.5-1.76.5-2.85s-.17-2.05-.5-2.87c-.33-.82-.81-1.45-1.43-1.87-.62-.43-1.36-.64-2.21-.64s-1.59.21-2.21.64-1.1,1.05-1.44,1.87c-.34.82-.51,1.78-.51,2.87s.17,2.04.51,2.85c.34.81.82,1.44,1.44,1.87.62.44,1.36.66,2.21.66Z" style="fill:#040000;"/><path d="m194.92,129.86v-3.81h11.57v3.81h-11.57Zm8.3,14.29c-1.79,0-3.17-.5-4.13-1.49s-1.44-2.43-1.44-4.31v-17.5h4.1v16.99c0,.77.21,1.36.62,1.78.42.42,1.01.62,1.78.62.6,0,1.25-.11,1.95-.32v3.81c-.88.28-1.84.42-2.88.42h0Z" style="fill:#040000;"/><path d="m216.36,144.06c-1.69,0-3.16-.38-4.41-1.14s-2.21-1.83-2.88-3.22-1.01-3.01-1.01-4.87.34-3.51,1.01-4.9,1.63-2.46,2.88-3.21,2.72-1.12,4.41-1.12,3.12.37,4.37,1.12,2.22,1.82,2.9,3.21,1.03,3.02,1.03,4.9-.34,3.49-1.03,4.89c-.68,1.4-1.65,2.47-2.9,3.22s-2.71,1.12-4.37,1.12Zm0-3.85c.85,0,1.59-.22,2.21-.66s1.09-1.06,1.43-1.87c.33-.81.5-1.76.5-2.85s-.17-2.05-.5-2.87c-.33-.82-.81-1.45-1.43-1.87-.62-.43-1.36-.64-2.21-.64s-1.59.21-2.21.64-1.1,1.05-1.44,1.87c-.34.82-.51,1.78-.51,2.87s.17,2.04.51,2.85c.34.81.82,1.44,1.44,1.87.62.44,1.36.66,2.21.66Z" style="fill:#040000;"/><path d="m235.29,150.69c-1.86,0-3.43-.36-4.71-1.07-1.28-.72-2.24-1.66-2.88-2.84l3.08-2.15c.51.83,1.14,1.46,1.89,1.87.75.42,1.6.62,2.56.62,1.3,0,2.32-.38,3.06-1.15.74-.77,1.11-1.89,1.11-3.37v-1.89h-.16c-.51.85-1.19,1.52-2.02,1.99s-1.75.71-2.76.71c-1.43,0-2.71-.37-3.85-1.12-1.13-.75-2.01-1.81-2.63-3.19s-.93-2.96-.93-4.76.3-3.29.91-4.6c.61-1.31,1.46-2.33,2.56-3.06,1.1-.73,2.37-1.09,3.8-1.09.98,0,1.9.24,2.76.71.85.47,1.57,1.13,2.15,1.99h.16v-2.24h4.1v16.12c0,2.69-.73,4.79-2.18,6.28-1.45,1.5-3.46,2.24-6.03,2.24h.01Zm.19-11.12c.81,0,1.52-.21,2.13-.63.61-.42,1.08-1,1.41-1.76.33-.76.5-1.64.5-2.64s-.17-1.92-.51-2.68-.83-1.35-1.47-1.76c-.64-.42-1.37-.62-2.18-.62s-1.53.21-2.16.62c-.63.42-1.12,1-1.47,1.76s-.53,1.65-.53,2.68.18,1.89.55,2.64c.36.76.87,1.35,1.52,1.76.65.42,1.39.63,2.23.63h-.02Z" style="fill:#040000;"/><path d="m247.44,143.61v-17.56h4.07v3.24h.16c.64-1.17,1.51-2.08,2.6-2.72s2.39-.96,3.91-.96h.19v4.1h-.29c-1.47,0-2.7.19-3.67.56s-1.7.92-2.18,1.63c-.48.72-.72,1.55-.72,2.52v9.2h-4.07Z" style="fill:#040000;"/><path d="m264.9,144.06c-1.07,0-2.03-.2-2.88-.61s-1.53-.98-2.02-1.73-.74-1.63-.74-2.66c0-1.24.33-2.33.98-3.27.65-.94,1.6-1.67,2.84-2.2,1.24-.52,2.7-.79,4.39-.79h2.5v-.67c0-.92-.32-1.66-.95-2.21-.63-.56-1.46-.83-2.48-.83-.75,0-1.42.16-2,.48-.59.32-1.1.79-1.52,1.41l-2.88-1.99c.79-1.13,1.74-1.98,2.85-2.55,1.11-.57,2.39-.85,3.85-.85s2.66.27,3.75.8c1.09.53,1.93,1.3,2.53,2.29.6.99.9,2.16.9,3.51v11.41h-4.04v-2.21h-.19c-.43.83-1.08,1.49-1.95,1.96-.88.47-1.85.71-2.92.71h-.02Zm1.12-3.43c.64,0,1.26-.12,1.86-.37.6-.25,1.09-.61,1.49-1.11.39-.49.59-1.09.59-1.79v-1.12h-1.63c-1.65,0-2.88.22-3.7.66s-1.23,1.07-1.23,1.91c0,.56.24,1,.72,1.33s1.12.5,1.91.5h0Z" style="fill:#040000;"/><path d="m277.82,150.27v-24.23h4.07v2.24h.16c.6-.83,1.34-1.49,2.21-1.97.88-.48,1.82-.72,2.82-.72,1.41,0,2.65.37,3.73,1.12,1.08.75,1.92,1.8,2.52,3.16.6,1.36.9,2.92.9,4.7,0,1.88-.3,3.54-.9,4.97-.6,1.43-1.44,2.54-2.53,3.33-1.09.79-2.34,1.19-3.75,1.19-1.05,0-2-.24-2.85-.71s-1.57-1.13-2.15-1.99h-.16v8.91h-4.07Zm3.94-15.45c0,1.07.17,2,.51,2.8s.82,1.43,1.43,1.87c.61.45,1.32.67,2.13.67s1.58-.22,2.23-.67c.65-.45,1.15-1.07,1.51-1.87.35-.8.53-1.74.53-2.8s-.18-2.01-.53-2.82c-.35-.81-.84-1.44-1.47-1.87-.63-.44-1.35-.66-2.16-.66s-1.54.22-2.18.66c-.64.44-1.13,1.06-1.47,1.87s-.51,1.75-.51,2.82h-.02Z" style="fill:#040000;"/><path d="m297.43,143.61v-23.69h4.07v8.46h.16c.51-.85,1.23-1.53,2.15-2.04.92-.5,1.9-.75,2.95-.75,1.84,0,3.27.58,4.29,1.75,1.03,1.16,1.54,2.82,1.54,4.95v11.31h-4.07v-10.51c0-1.11-.3-2-.9-2.68-.6-.67-1.37-1.01-2.31-1.01-.77,0-1.44.17-2.02.5s-1.02.8-1.33,1.41-.46,1.31-.46,2.1v10.19h-4.07Z" style="fill:#040000;"/><path d="m314.13,126.04h4.52l4.49,12.6h.19l4.36-12.6h4.52l-9.55,24.23h-4.39l2.76-6.67-6.89-17.56h0Z" style="fill:#040000;"/><path d="m97.03,44.82c-2.25-2.22-5.89-2.74-9.45-2.74s-7.12.45-9.37,2.67-3.12,5.54-3.12,9.62.78,7.35,3.03,9.57c2.25,2.21,5.91,2.75,9.46,2.75s7.1-.45,9.36-2.67c2.25-2.21,3.14-5.57,3.14-9.64s-.79-7.33-3.04-9.55h-.01Zm-4.06,15.43c-1.25,1.43-3.52,1.69-5.4,1.69s-4.14-.25-5.39-1.68c-1.26-1.43-1.34-3.4-1.34-5.89s.08-4.4,1.33-5.84c1.25-1.43,3.27-1.68,5.4-1.68s4.14.25,5.4,1.68c1.25,1.43,1.33,3.35,1.33,5.84s-.08,4.45-1.33,5.88Z" style="fill:#040000;"/><path d="m38.27,42.51h-5.04c-.22,0-.39.17-.39.38v22.98c0,.21.18.38.39.38h5.04c.21,0,.39-.17.39-.38v-22.98c0-.21-.18-.38-.39-.38" style="fill:#040000;"/><path d="m17.1,54.19l8.95-11.08c.19-.24.02-.6-.29-.6h-6.45c-.15,0-.3.07-.39.19l-5.91,7.84-5.77-7.83c-.09-.13-.24-.2-.39-.2H.38c-.31,0-.48.36-.29.6l9.06,11.28L.08,65.66c-.19.24,0,.59.29.59h6.47c.16,0,.31-.08.4-.2l6.04-7.81,5.72,7.81c.09.13.24.2.4.2h6.39c.31,0,.48-.35.29-.59l-8.97-11.47h0Z" style="fill:#040000;"/><path d="m139.76,44.26c-2.05-1.91-5.34-2.14-8.01-2.14-3.44,0-5.64.73-6.97,1.42h-.92c-1.3-.72-3.59-1.42-7.2-1.42-2.67,0-5.94.2-7.95,1.89-1.67,1.4-2.05,3.26-2.05,7.09v14.77c0,.21.18.38.39.38h5.03c.22,0,.39-.17.39-.38v-12.16c0-2.19-.09-4.48.39-5.33.37-.66.95-1.4,3.68-1.4,3.26,0,4.03.23,4.55,1.67.12.34.18.83.21,1.42v15.8c0,.21.18.38.39.38h5.04c.21,0,.39-.17.39-.38v-15.8c.03-.59.09-1.08.21-1.42.51-1.44,1.28-1.67,4.55-1.67,2.73,0,3.31.74,3.68,1.4.47.85.39,3.14.39,5.33v12.16c0,.21.18.38.39.38h5.03c.21,0,.39-.17.39-.38v-13.87c0-3.97-.13-6-1.99-7.74" style="fill:#040000;"/><path d="m69.36,52.77c-.02-1.11-.18-4.76-1.89-7.1-2.33-3.21-6.53-4.18-10.9-3.95-4.43.24-7.51,1.18-8.3,1.47-.49.19-.43.61-.43.86-.02.85-.08,3.04-.08,3.93,0,.39.48.58.89.43,1.62-.57,4.59-1.48,6.99-1.68,2.58-.21,6.1,0,7.07,1.47.46.7.49,1.77.54,2.86-1.61-.15-4-.35-6.37-.22-1.85.1-5.39.25-7.48,1.37-1.7.9-2.69,1.72-3.22,3.25-.43,1.23-.54,2.71-.41,3.91.31,2.75,1.26,4.12,2.55,5.07,2.04,1.51,4.6,2.3,9.91,2.18,7.06-.15,8.92-2.44,9.86-4.06,1.6-2.76,1.32-7.12,1.27-9.79h0Zm-6.49,7.39c-.67,1.4-3.04,1.62-4.45,1.68-2.6.12-4.52,0-5.76-.6-.82-.41-1.42-1.34-1.48-2.4-.05-.9-.03-1.36.38-1.9.91-1.19,3.31-1.45,5.77-1.54,1.66-.06,4.19.12,6.06.35,0,1.8-.13,3.61-.51,4.4h-.01Z" style="fill:#040000;"/><path d="m155.18,42.51h-5.04c-.22,0-.39.17-.39.38v22.98c0,.21.17.38.39.38h5.04c.21,0,.39-.17.39-.38v-22.98c0-.21-.18-.38-.39-.38" style="fill:#040000;"/><path d="m174.77,66.32v-18.94l-5.1,2.63v-4.39l5.9-3.01h3.43v23.72h-4.23,0Z" style="fill:#040000;"/><path d="m187.46,59.68c.56,1.07,1.21,1.87,1.95,2.42.75.55,1.66.82,2.72.82.79,0,1.5-.16,2.12-.48s1.1-.79,1.44-1.39c.34-.61.51-1.31.51-2.1s-.17-1.48-.51-2.08-.82-1.06-1.44-1.38-1.35-.48-2.18-.48-1.52.18-2.18.54-1.21.9-1.63,1.6l-3.56-1.63.96-12.92h13.53v3.85h-9.58l-.54,6.41-.87.06c.58-.56,1.29-.98,2.13-1.28s1.71-.45,2.61-.45c1.52,0,2.84.32,3.97.95s2,1.52,2.61,2.68c.61,1.15.91,2.49.91,4.01,0,1.6-.34,3-1.03,4.18-.68,1.19-1.66,2.1-2.92,2.76-1.26.65-2.75.98-4.45.98-1.9,0-3.54-.43-4.92-1.28s-2.39-2.02-3.03-3.49l3.37-2.28v-.02Z" style="fill:#040000;"/><path d="m223.7,62.79c1.58,0,2.82-.49,3.72-1.47s1.35-2.38,1.35-4.2v-14.49h4.23v14.71c0,1.94-.37,3.63-1.12,5.05s-1.82,2.51-3.22,3.25c-1.4.75-3.05,1.12-4.95,1.12s-3.52-.37-4.92-1.12c-1.4-.75-2.47-1.83-3.22-3.25s-1.12-3.1-1.12-5.05v-14.71h4.2v14.36c0,1.86.45,3.29,1.36,4.29.91,1,2.14,1.51,3.7,1.51h-.01Z" style="fill:#040000;"/><path d="m237.19,62.73v-20.1h4.07v18.81c0,.38.1.68.3.88.2.2.5.3.88.3h.83v3.81h-2.05c-1.33,0-2.33-.31-3.01-.95-.68-.63-1.03-1.55-1.03-2.77v.02Z" style="fill:#040000;"/><path d="m244.56,52.57v-3.81h11.57v3.81h-11.57Zm8.3,14.29c-1.79,0-3.17-.5-4.13-1.49s-1.44-2.43-1.44-4.31v-17.5h4.1v16.99c0,.77.21,1.36.62,1.78.42.42,1.01.62,1.78.62.6,0,1.25-.11,1.95-.32v3.81c-.88.28-1.84.42-2.88.42Z" style="fill:#040000;"/><path d="m258.73,66.32v-17.56h4.07v3.24h.16c.64-1.17,1.51-2.08,2.6-2.72,1.09-.64,2.39-.96,3.91-.96h.19v4.1h-.29c-1.47,0-2.7.19-3.67.56-.97.37-1.7.92-2.18,1.63-.48.72-.72,1.55-.72,2.52v9.2h-4.07Z" style="fill:#040000;"/><path d="m276.2,66.77c-1.07,0-2.03-.2-2.88-.61s-1.53-.98-2.02-1.73-.74-1.63-.74-2.66c0-1.24.33-2.33.98-3.27.65-.94,1.6-1.67,2.84-2.2,1.24-.52,2.7-.79,4.39-.79h2.5v-.67c0-.92-.32-1.66-.95-2.21-.63-.56-1.46-.83-2.48-.83-.75,0-1.42.16-2,.48-.59.32-1.1.79-1.52,1.41l-2.88-1.99c.79-1.13,1.74-1.98,2.85-2.55,1.11-.57,2.39-.85,3.85-.85s2.66.27,3.75.8,1.93,1.3,2.53,2.29.9,2.16.9,3.51v11.41h-4.04v-2.21h-.19c-.43.83-1.08,1.49-1.95,1.96-.88.47-1.85.71-2.92.71h-.02Zm1.12-3.43c.64,0,1.26-.12,1.86-.37.6-.25,1.09-.61,1.49-1.11.39-.49.59-1.09.59-1.79v-1.12h-1.63c-1.65,0-2.88.22-3.7.66s-1.23,1.07-1.23,1.91c0,.56.24,1,.72,1.33s1.12.5,1.91.5h0Z" style="fill:#040000;"/><rect x="171.67" y="90.35" width="3.14" height=".87" style="fill:#040000;"/><path d="m160.13,88.28c-.07-.34-.16-.54-.23-.68-.17-.31-.53-.78-1.39-.78-.28,0-.81.03-1.3.55-.4.43-.77,1.17-.77,2.47,0,.88.18,1.9.86,2.53.48.43,1,.46,1.23.46.17,0,.59-.01.98-.31.62-.49.68-1.4.7-1.58h1.1c-.01.27-.04,1.15-.55,1.89-.29.42-.92,1.05-2.17,1.05-.26,0-.88-.02-1.51-.33-.87-.43-1.91-1.48-1.91-3.69,0-1.93.74-2.95,1.41-3.46.78-.59,1.6-.63,1.95-.63,1.02,0,1.96.44,2.41,1.41.17.36.22.71.27,1.1h-1.08Z" style="fill:#040000;"/><path d="m164.88,86.31c.75-.51,1.5-.54,1.82-.54,1.18,0,1.9.56,2.22.88.53.51,1.15,1.48,1.15,3.18,0,.47-.02,2.51-1.62,3.55-.53.34-1.11.51-1.75.51-.28,0-.94-.03-1.61-.42-1.74-1-1.77-3.17-1.77-3.64.01-1.32.41-2.73,1.56-3.52m.1,5.41c.17.32.33.5.44.61.49.48,1.02.51,1.28.51.72,0,1.29-.37,1.64-.99.21-.36.46-1.03.46-2.03,0-.22.02-1.72-.83-2.53-.2-.19-.59-.49-1.26-.49-.17,0-.55.01-.93.24-1.21.71-1.16,2.59-1.16,2.77,0,.22,0,1.14.38,1.9" style="fill:#040000;"/><polygon points="181.25 89.16 181.25 90.21 178.1 90.21 178.1 92.7 181.62 92.7 181.62 93.75 176.89 93.75 176.89 85.91 181.52 85.91 181.52 86.94 178.1 86.94 178.1 89.16 181.25 89.16" style="fill:#040000;"/><polygon points="185.42 85.91 188.88 91.89 188.88 85.91 190.02 85.91 190.02 93.75 188.77 93.75 185.27 87.77 185.27 93.75 184.12 93.75 184.12 85.91 185.42 85.91" style="fill:#040000;"/><path d="m198.87,89.77v3.24c-.09.07-.33.23-.61.38-.32.16-1.12.5-2.14.5-1.4,0-2.17-.63-2.55-1.07-.42-.49-.94-1.44-.94-3.01,0-.44.01-2.55,1.62-3.56.29-.18.9-.49,1.76-.49.99,0,1.96.4,2.44,1.32.14.27.25.57.31,1.18h-1.08c-.06-.28-.19-1.09-1.04-1.35-.26-.09-.52-.1-.61-.1-.32,0-1.07.08-1.59.82-.42.61-.56,1.5-.56,2.21,0,1.42.51,3,2.24,3,.57,0,1.22-.2,1.71-.51v-1.6h-1.59v-.95h2.63Z" style="fill:#040000;"/><rect x="201.64" y="85.91" width="1.22" height="7.83" style="fill:#040000;"/><polygon points="207.22 85.91 210.68 91.89 210.68 85.91 211.83 85.91 211.83 93.75 210.57 93.75 207.08 87.77 207.08 93.75 205.92 93.75 205.92 85.91 207.22 85.91" style="fill:#040000;"/><polygon points="219.25 89.16 219.25 90.21 216.1 90.21 216.1 92.7 219.63 92.7 219.63 93.75 214.89 93.75 214.89 85.91 219.53 85.91 219.53 86.94 216.1 86.94 216.1 89.16 219.25 89.16" style="fill:#040000;"/><polygon points="226.48 89.16 226.48 90.21 223.33 90.21 223.33 92.7 226.86 92.7 226.86 93.75 222.12 93.75 222.12 85.91 226.76 85.91 226.76 86.94 223.33 86.94 223.33 89.16 226.48 89.16" style="fill:#040000;"/><path d="m231.03,85.91c.43,0,1.01,0,1.44.06.32.06,1.25.19,1.76,1.06.12.2.31.61.3,1.2,0,.19-.02.77-.34,1.27-.17.26-.39.47-.63.63-.22.14-.42.21-.51.26l1.93,3.36h-1.43l-1.79-3.16h-1.21v3.16h-1.21v-7.83h1.69Zm.7,3.63c.32-.02,1.56-.04,1.55-1.33,0-.63-.35-.93-.57-1.04-.44-.26-1.21-.21-1.68-.22h-.49v2.6h1.19Z" style="fill:#040000;"/><polygon points="241.58 89.16 241.58 90.21 238.43 90.21 238.43 92.7 241.96 92.7 241.96 93.75 237.22 93.75 237.22 85.91 241.86 85.91 241.86 86.94 238.43 86.94 238.43 89.16 241.58 89.16" style="fill:#040000;"/><path d="m246.69,85.91c1.28.04,1.88.3,2.36.68.57.43,1.43,1.44,1.42,3.24,0,1.1-.36,2.29-1.19,3.05-.95.89-2.2.87-3.38.87h-1.43v-7.83h2.22Zm-.37,6.79c.61,0,.89-.01,1.18-.09.54-.12,1.31-.49,1.61-1.75.11-.48.11-.87.11-1.04,0-1.13-.39-2.37-1.6-2.74-.41-.12-.78-.13-1.6-.13h-.34v5.76h.64Z" style="fill:#040000;"/><polygon points="257.75 85.91 259.26 92.29 260.79 85.91 261.83 85.91 263.38 92.29 264.9 85.91 266.02 85.91 264.06 93.77 262.71 93.77 261.3 88.19 259.9 93.77 258.55 93.77 256.61 85.91 257.75 85.91" style="fill:#040000;"/><rect x="268.25" y="85.91" width="1.22" height="7.83" style="fill:#040000;"/><polygon points="277.08 85.91 277.08 86.94 275.01 86.94 275.01 93.75 273.81 93.75 273.81 86.94 271.75 86.94 271.75 85.91 277.08 85.91" style="fill:#040000;"/><polygon points="283.95 89.15 283.95 85.91 285.16 85.91 285.16 93.75 283.95 93.75 283.95 90.16 280.57 90.16 280.57 93.75 279.35 93.75 279.35 85.91 280.57 85.91 280.57 89.15 283.95 89.15" style="fill:#040000;"/><path d="m308.65,105.68c8.71,0,15.78-7.06,15.78-15.77s-7.06-15.78-15.78-15.78-15.78,7.06-15.78,15.78,7.06,15.77,15.78,15.77" style="fill:#e60012;"/><path d="m321.2,90.8s-.41.3-.7.3c-.22,0-.34-.18-.34-.39,0-.46.72-2.7.72-2.7l-1.75.02-.09.3s-.25-.52-1.17-.52c-1.78,0-2.75,1.53-2.8,2.44,0,.2-.01.22-.01.22-.04.05-.67.76-1.44.76-.62,0-.72-.52-.72-.85,0-.36.3-1.78,1.14-1.78.46,0,.74.4.74.4l.25-.81s-.39-.3-1.19-.31c-1.72,0-2.89,1.29-2.93,2.45,0,.17-.02.23-.01.24-.06.07-.48.56-1.03.56-.38,0-.38-.29-.38-.42,0-.18.74-2.71.74-2.71l-1.94.03-.69,2.46s-1.06.77-2.55.88c-.77.05-1.03-.41-1.03-.69v-.11s.31.02.55.02c.18,0,2.45-.16,2.45-1.55,0-.79-.79-1.1-1.8-1.1-1.85,0-3.15,1.15-3.15,2.52,0,1.25,1.07,1.78,2.44,1.78,1.56,0,3.08-.95,3.08-.95,0,0,.08.95,1.31.95s2.26-.95,2.26-.95c0,0,.55.92,1.81.92s2.28-1.04,2.28-1.04c0,0,.35.98,1.62.98,1,0,1.53-.65,1.53-.65,0,0,.28.65,1.15.65,1.06,0,1.86-.75,1.86-.75l-.19-.61h-.02Zm-15.92-2.28c.26.02.44.2.43.39-.04,1.23-1.57,1.04-1.57,1.04,0,0,.25-1.49,1.14-1.44m12.22,2.72c-.48,0-.48-.53-.48-.68,0-.4.32-2,1.18-2,.37,0,.56.31.56.54,0,.05-.22,2.14-1.27,2.14" style="fill:#fff;"/><path d="m321.33,92.9s-4.08,1.42-11.87,1.33c-5.37-.07-9.47-1.65-9.47-1.65,0,0,.13-.26.22-.43.54-1.1,1.17-3.33,1.17-3.33,0,0,3.69-1.03,3.69-3.96,0-.93-.86-1.53-1.72-1.56-2.98-.12-3.8,4.13-3.99,4.85-.01.05-.02.07-.02.07-.92-.13-1.44-.31-1.44-.31l-.21.57c.62.29,1.52.39,1.52.39-.18,1.14-1.06,3.29-1.06,3.29,0,0-.82-.27-1.83-.27-1.31,0-1.76.62-1.8,1.01-.09,1.01,1.19,1.49,2.08,1.49,1.73,0,2.64-.94,2.64-.94,0,0,4.88,1.84,9.97,1.84,6.66,0,12.28-1.77,12.28-1.77l-.18-.61h.02Zm-17.83-8.77c.57,0,.76.46.71.88-.28,2.45-2.71,3.01-2.71,3.01,0,0,.6-3.89,2-3.89m-7.25,9.46c-.49.02-.81-.31-.81-.49,0-.4.5-.47.81-.45.76.04,1.42.3,1.42.3,0,0-.77.62-1.42.64" style="fill:#fff;"/><path d="m309.63,85.71c-.62,0-1.08.25-1.08.83s.53.75,1.08.75,1.05-.26,1.05-.86-.6-.72-1.05-.72" style="fill:#fff;"/></svg>